<svg width="130" height="130" viewBox="0 0 130 130" fill="none" xmlns="http://www.w3.org/2000/svg">
<path fill-rule="evenodd" clip-rule="evenodd" d="M111.578 32.1938C113.162 34.8828 122.226 48.9441 120.663 68.1424C120.447 70.7983 119.136 86.9106 108.809 99.2677C91.9859 119.399 77.0754 121.539 62.6393 122.953C51.3494 122.578 51.2379 123.063 40.5801 119.268C-19.2506 97.9613 -5.83041 10.8732 55.6373 5.27394C92.9858 1.87141 110.873 31.2713 111.578 32.1938Z" fill="#4C5252"/>
<path fill-rule="evenodd" clip-rule="evenodd" d="M59.6237 120.393C58.3173 120.304 50.21 119.748 43.4923 117.58C-16.9112 98.0789 -2.93932 13.9783 54.6093 7.97409C115.541 1.61619 141.383 79.0715 92.5979 111.059C76.4525 121.644 59.7202 120.388 59.6237 120.393Z" fill="#89A1A4"/>
<path fill-rule="evenodd" clip-rule="evenodd" d="M8.281 50.0504C9.17434 47.5151 12.0533 36.2242 21.9977 26.4868C66.6376 -17.2276 134.129 31.3957 111.572 85.1117C87.6828 142.001 -7.59314 120.736 8.281 50.0504Z" fill="#3B4648"/>
<path fill-rule="evenodd" clip-rule="evenodd" d="M40.4776 111.508C-20.0585 83.8263 14.217 1.9122 71.6029 13.3076C123.54 23.6207 126.773 94.6468 80.5895 111.982C59.2699 119.985 43.433 112.473 40.4776 111.508Z" fill="#84A0A4"/>
<path fill-rule="evenodd" clip-rule="evenodd" d="M61.6906 40.7915L62.6372 41.0347L63.6391 40.9995C67.1079 43.8002 76.2543 44.2925 78.8329 45.8732C80.0006 46.252 79.8448 46.5797 81.0788 46.6018C81.5602 46.6108 81.4526 46.7786 81.95 46.7877C82.0857 46.8942 82.9861 47.5986 83.8975 47.692C84.1276 47.9654 83.7548 48.4869 83.9849 48.7592C84.1025 48.8989 84.3638 48.3955 85.9766 49.8656C86.0479 52.7064 86.7252 52.419 88.2094 54.9252C88.0617 56.6013 88.2125 56.5491 89.0355 58.0363C89.9218 59.6351 89.6816 59.7094 90.8664 61.0751L91.2613 61.8247C93.0962 66.2914 87.6316 75.3334 87.0036 76.3714C86.1293 77.8195 87.6588 78.966 84.3678 81.7797C83.5558 82.4741 83.604 82.455 83.0805 83.3534C79.7574 82.1385 80.0287 83.7885 78.6017 87.0875C77.8742 87.6211 74.2275 89.3746 73.8406 89.5605C71.8781 88.1828 71.9163 88.1426 71.7213 88.0723C67.3049 86.4836 68.2615 89.0942 67.7731 90.6196C67.5953 90.6297 67.6676 90.8347 65.6639 91.3201L64.8188 91.6687C62.6151 91.5773 62.7166 91.4939 60.5913 91.3994C58.6217 90.687 58.7031 90.5795 56.5838 90.3112C56.3627 90.1866 56.636 89.6942 56.415 89.5695C55.8824 89.2691 55.9004 89.9364 55.402 89.6439C54.7257 89.247 55.2352 88.8772 54.5147 88.4541C55.0764 88.0542 55.6392 87.6532 56.2009 87.2533L55.9447 86.2484C54.7609 81.4581 52.6708 86.7901 51.3935 86.4966C47.8453 85.6837 53.8183 82.3163 50.664 77.9662C49.3345 73.8934 48.3397 74.833 47.1017 74.5245C46.7681 74.1285 46.4345 73.7316 46.1008 73.3357C51.8588 67.8179 46.2114 65.7317 48.9004 61.3113C50.8881 58.0434 48.8864 57.8243 49.1949 54.0922L50.5293 53.0873L50.7484 52.0824L49.3737 50.9609C50.0561 47.6368 51.0378 47.9976 51.3192 44.6965C52.3884 44.7066 53.4586 44.7166 54.5278 44.7266L56.4953 42.7993C56.837 42.5139 56.8782 42.6515 61.6906 40.7915Z" fill="#AB6640"/>
<path fill-rule="evenodd" clip-rule="evenodd" d="M111.578 32.1938L112.883 31.3315L113.887 32.4661L114.412 32.9896L115.275 33.9945L116.148 34.9994L116.906 36.0043L117.553 37.0092L118.281 38.014C120.47 41.5573 131.924 56.5802 127.108 82.2661C122.262 108.113 94.3023 129.847 65.653 125.142C63.0655 124.718 63.7236 123.741 62.6393 122.953C77.0754 121.539 91.9859 119.399 108.809 99.2677C119.136 86.9106 120.447 70.7983 120.663 68.1424C122.226 48.9441 113.162 34.8828 111.578 32.1938Z" fill="black" fill-opacity="0.15"/>
<path fill-rule="evenodd" clip-rule="evenodd" d="M49.3737 50.9609L50.7484 52.0824L50.5293 53.0873L49.1949 54.0922C48.8864 57.8243 50.8881 58.0434 48.9004 61.3113C46.2114 65.7317 51.8588 67.8179 46.1008 73.3357C45.5954 72.9498 45.089 72.5639 44.5826 72.178L44.3595 71.136C38.7462 70.7672 40.5741 74.1074 40.5621 74.1828L39.8727 73.1548C39.3572 70.0859 39.1964 70.0899 40.0626 67.0582C40.0626 67.0582 39.5722 64.3742 39.529 64.14C40.3581 62.9995 40.4465 63.1532 41.1037 61.9725C41.1097 61.9614 42.1478 61.4047 42.205 60.0632C42.3397 56.8928 43.442 57.3741 45.0589 54.7072C46.8436 51.7619 48.3829 52.0814 49.3737 50.9609Z" fill="#9F603C"/>
<path fill-rule="evenodd" clip-rule="evenodd" d="M40.8745 75.1455C41.3579 77.092 41.3006 77.1041 41.3971 77.2478C41.8503 77.9271 42.1869 77.4256 42.6723 78.1521C43.5475 79.2384 44.4238 80.3247 45.299 81.4109C45.4538 81.7425 45.1443 82.1767 45.298 82.5083C47.3359 86.8836 47.8202 80.3166 50.664 77.9662C53.8183 82.3163 47.8453 85.6837 51.3935 86.4966C52.6708 86.7901 54.7609 81.4581 55.9447 86.2484L56.2009 87.2533C55.6392 87.6532 55.0764 88.0542 54.5147 88.4541C53.7932 88.7928 53.0718 89.1325 52.3503 89.4711C45.0347 82.6218 43.4259 84.1573 40.4233 78.2626C40.5741 77.2236 40.7238 76.1846 40.8745 75.1455Z" fill="#89573B"/>
<path fill-rule="evenodd" clip-rule="evenodd" d="M50.2492 44.646L51.3192 44.6965C51.0378 47.9976 50.0561 47.6368 49.3737 50.9609C48.3829 52.0814 46.8436 51.7619 45.0589 54.7072C43.442 57.3741 42.3397 56.8928 42.205 60.0632C42.1478 61.4047 41.1097 61.9614 41.1037 61.9725C40.4465 63.1532 40.3581 62.9995 39.529 64.14C39.109 57.6937 42.9055 56.9156 44.4118 52.0249C45.1765 49.5408 46.8084 50.8341 48.159 47.8616C48.9729 46.0689 48.8865 46.1202 50.2492 44.646Z" fill="#6D5040"/>
<path fill-rule="evenodd" clip-rule="evenodd" d="M63.6391 40.9995C67.2928 40.5001 67.3472 40.2154 70.8351 41.5539C72.8911 42.3437 73.1102 41.4734 75.0496 42.5969C75.6666 42.9546 78.1286 42.9868 78.6692 43.1516C79.5726 43.4279 80.7292 45.5292 80.9744 45.7965C80.2609 45.8216 79.5463 45.8471 78.8329 45.8732C76.2543 44.2925 67.1079 43.8002 63.6391 40.9995Z" fill="#5F5044"/>
<path fill-rule="evenodd" clip-rule="evenodd" d="M44.5826 72.178C45.089 72.5639 45.5954 72.9498 46.1008 73.3357C46.4345 73.7316 46.7681 74.1285 47.1017 74.5245C47.8041 78.1933 46.8837 78.0747 45.299 81.4109C44.4238 80.3247 43.5475 79.2384 42.6723 78.1521C42.1507 77.2035 41.6292 76.2556 41.1077 75.307C44.3906 73.3344 44.5102 73.4781 44.6499 73.1786C44.7906 72.8752 44.4409 72.4815 44.5826 72.178Z" fill="#A1603C"/>
<path fill-rule="evenodd" clip-rule="evenodd" d="M47.1017 74.5245C48.3397 74.833 49.3345 73.8934 50.664 77.9662C47.8202 80.3166 47.3359 86.8836 45.298 82.5083C45.1443 82.1767 45.4538 81.7425 45.299 81.4109C46.8837 78.0747 47.8041 78.1933 47.1017 74.5245Z" fill="#B06D45"/>
<path fill-rule="evenodd" clip-rule="evenodd" d="M58.6508 40.3052C60.1572 40.6699 60.0888 40.69 61.6906 40.7915C56.8782 42.6515 56.837 42.5139 56.4953 42.7993C56.216 43.0123 55.7236 42.5109 55.4453 42.7239C55.4453 42.7239 54.6011 44.5669 54.5278 44.7266C53.4586 44.7166 52.3884 44.7066 51.3192 44.6965L50.2492 44.646C51.9062 42.2966 57.9253 40.5192 58.6508 40.3052Z" fill="#5D564F"/>
<path fill-rule="evenodd" clip-rule="evenodd" d="M73.8406 89.5605C71.2732 90.7322 71.2913 90.5422 68.4093 90.7995L67.7731 90.6196C68.2615 89.0942 67.3049 86.4836 71.7213 88.0723C71.9163 88.1426 71.8781 88.1828 73.8406 89.5605Z" fill="#674C3C"/>
<path fill-rule="evenodd" clip-rule="evenodd" d="M44.3595 71.136L44.5826 72.178C44.4409 72.4815 44.7906 72.8752 44.6499 73.1786C44.5102 73.4781 44.3906 73.3344 41.1077 75.307L40.8745 75.1455L40.5621 74.1828C40.5741 74.1074 38.7462 70.7672 44.3595 71.136Z" fill="#905839"/>
<path fill-rule="evenodd" clip-rule="evenodd" d="M39.8727 73.1548L40.5621 74.1828L40.8745 75.1455C40.7238 76.1846 40.5741 77.2236 40.4233 78.2626C36.4239 77.8748 36.7616 75.6981 39.8727 73.1548Z" fill="#6A7470"/>
<path fill-rule="evenodd" clip-rule="evenodd" d="M60.5913 91.3994C62.7166 91.4939 62.6151 91.5773 64.8188 91.6687C64.7404 91.934 64.052 94.2643 62.6411 94.3538C59.8968 94.5286 60.3108 92.6827 57.5374 92.8003C58.5553 92.334 59.5733 91.8667 60.5913 91.3994Z" fill="#5B5A56"/>
<path fill-rule="evenodd" clip-rule="evenodd" d="M88.9552 53.9844C90.8042 56.6684 90.7116 58.3408 90.8664 61.0751C89.6816 59.7094 89.9218 59.6351 89.0355 58.0363C88.2125 56.5491 88.0617 56.6013 88.2094 54.9252L88.9552 53.9844Z" fill="#66584F"/>
<path fill-rule="evenodd" clip-rule="evenodd" d="M54.5088 90.5029C55.2001 90.4386 55.8924 90.3755 56.5838 90.3112C58.7031 90.5795 58.6217 90.687 60.5913 91.3994C59.5733 91.8667 58.5553 92.334 57.5374 92.8003C55.3306 93.1339 55.3599 92.5599 54.5088 90.5029Z" fill="#5F5850"/>
<path fill-rule="evenodd" clip-rule="evenodd" d="M83.0805 83.3534C81.7732 86.1228 81.1662 85.5149 78.6017 87.0875C80.0287 83.7885 79.7574 82.1385 83.0805 83.3534Z" fill="#6A584E"/>
<path fill-rule="evenodd" clip-rule="evenodd" d="M62.0193 47.7251C63.7658 45.424 63.5839 45.2753 63.817 45.1888C64.1868 45.0502 65.9735 45.6812 65.3776 46.8549C64.4139 48.7491 63.9647 48.5421 62.0193 47.7251Z" fill="#985838"/>
<path fill-rule="evenodd" clip-rule="evenodd" d="M85.9766 49.8656C88.0105 51.5156 88.0951 51.431 88.9552 53.9844L88.2094 54.9252C86.7252 52.419 86.0479 52.7064 85.9766 49.8656Z" fill="#6F655A"/>
<path fill-rule="evenodd" clip-rule="evenodd" d="M67.7731 90.6196L68.4093 90.7995C68.8294 97.7975 65.7493 91.5271 65.6639 91.3201C67.6676 90.8347 67.5953 90.6297 67.7731 90.6196Z" fill="#666C68"/>
<path fill-rule="evenodd" clip-rule="evenodd" d="M60.9791 86.7557C60.6465 87.1406 60.8475 87.8259 60.5148 88.2108C59.8446 88.9855 56.4169 87.0129 57.7333 86.4271C59.3552 85.7056 59.3723 85.989 60.9791 86.7557Z" fill="#925230"/>
<path fill-rule="evenodd" clip-rule="evenodd" d="M54.5147 88.4541C55.2352 88.8772 54.7257 89.247 55.402 89.6439C55.9004 89.9364 55.8824 89.2691 56.415 89.5695C56.636 89.6942 56.3627 90.1866 56.5838 90.3112C55.8924 90.3755 55.2001 90.4386 54.5088 90.5029C53.317 90.1522 53.3481 90.2077 52.3503 89.4711C53.0718 89.1325 53.7932 88.7928 54.5147 88.4541Z" fill="#605045"/>
<path fill-rule="evenodd" clip-rule="evenodd" d="M55.6481 58.0571C58.0357 62.0284 54.2081 60.5211 54.0454 60.0066C53.5871 58.5626 54.2895 58.8128 55.6481 58.0571Z" fill="#A7613D"/>
<path fill-rule="evenodd" clip-rule="evenodd" d="M74.0839 83.77C74.0397 82.0969 74.1663 81.7191 75.8706 81.8939C86.242 82.9591 74.2909 83.7861 74.0839 83.77Z" fill="#8C4D2E"/>
<path fill-rule="evenodd" clip-rule="evenodd" d="M81.3501 69.2996C81.9048 67.4235 82.6243 66.5342 83.5759 68.2565C83.6714 68.4294 84.9054 71.3234 81.3501 69.2996Z" fill="#864A2F"/>
<path fill-rule="evenodd" clip-rule="evenodd" d="M65.0269 80.433C66.9351 77.2234 68.0656 80.4199 67.53 81.1464C66.6136 82.3864 66.4267 81.3263 65.0269 80.433Z" fill="#884E2E"/>
<path fill-rule="evenodd" clip-rule="evenodd" d="M83.8975 47.692C85.5465 47.9533 85.1817 48.4025 85.9766 49.8656C84.3638 48.3955 84.1025 48.8989 83.9849 48.7592C83.7548 48.4869 84.1276 47.9654 83.8975 47.692Z" fill="#6F6C65"/>
<path fill-rule="evenodd" clip-rule="evenodd" d="M58.6508 40.3052C60.7621 40.1605 60.7661 39.9936 62.6372 41.0347L61.6906 40.7915C60.0888 40.69 60.1572 40.6699 58.6508 40.3052Z" fill="#686A65"/>
<path fill-rule="evenodd" clip-rule="evenodd" d="M78.8329 45.8732C79.5463 45.8471 80.2609 45.8216 80.9744 45.7965C81.3 46.1271 81.6254 46.4571 81.95 46.7877C81.4526 46.7786 81.5602 46.6108 81.0788 46.6018C79.8448 46.5797 80.0006 46.252 78.8329 45.8732Z" fill="#70645B"/>
<path fill-rule="evenodd" clip-rule="evenodd" d="M40.8745 75.1455L41.1077 75.307C41.6292 76.2556 42.1507 77.2035 42.6723 78.1521C42.1869 77.4256 41.8503 77.9271 41.3971 77.2478C41.3006 77.1041 41.3579 77.092 40.8745 75.1455Z" fill="#765843"/>
<path fill-rule="evenodd" clip-rule="evenodd" d="M56.4953 42.7993L54.5278 44.7266C54.6011 44.5669 55.4453 42.7239 55.4453 42.7239C55.7236 42.5109 56.216 43.0123 56.4953 42.7993Z" fill="#75533E"/>
<path fill-rule="evenodd" clip-rule="evenodd" d="M81.7793 78.0515C83.3881 78.149 84.7196 76.6597 84.1096 78.1932C84.1096 78.1932 81.9662 78.0625 81.7793 78.0515Z" fill="#915838"/>
</svg>
